<svg width="544.2" height="544.2" xmlns="http://www.w3.org/2000/svg">

 <g>
  <title>background</title>
  <rect fill="none" id="canvas_background" height="402" width="582" y="-1" x="-1"/>
 </g>
 <g>
  <title>Layer 1</title>
  <g id="svg_1" fill="#ffa515">
   <path fill="#0066ff" id="svg_2" d="m272.9,229.4c-12.2,0 -22.2,10 -22.2,22.2s10,22.2 22.2,22.2s22.2,-10 22.2,-22.2s-10,-22.2 -22.2,-22.2zm-79.7,0c-12.2,0 -22.2,10 -22.2,22.2s10,22.2 22.2,22.2c12.9,0 23,-10.1 22.2,-22.2c0,-12.2 -10,-22.2 -22.2,-22.2z"/>
   <path fill="#0066ff" id="svg_3" d="m272.1,0c-270,0 -272.1,121.8 -272.1,272.1s2.1,272.1 272.1,272.1s272.1,-121.8 272.1,-272.1s-2.1,-272.1 -272.1,-272.1zm15.8,379.4c-16.5,2.2 -31.5,2.2 -46.6,0c-52.4,53.8 -107.7,43 -96.9,34.4c26.6,-20.8 32.3,-40.2 30.9,-56c-34.5,-20.1 -58.9,-51 -63.2,-88.3c-8.6,-70.4 56.7,-135 145,-145c88.3,-9.3 167.2,39.5 175.1,109.8c7.9,70.4 -56.7,134.9 -144.3,145.1z"/>
   <path fill="#0066ff" id="svg_4" d="m352.5,229.4c-12.2,0 -22.2,10 -22.2,22.2s10,22.2 22.2,22.2s22.3,-10.1 22.2,-22.2c0,-12.2 -10,-22.2 -22.2,-22.2z"/>
  </g>
 </g>
</svg>